<svg xmlns="http://www.w3.org/2000/svg" xmlns:xlink="http://www.w3.org/1999/xlink" width="18" height="18" viewBox="0 0 18 18">
  <defs>
    <clipPath id="clip-path">
      <rect id="Rectangle_17389" data-name="Rectangle 17389" width="18" height="18" transform="translate(6.323 1)" fill="#e6e6e6"/>
    </clipPath>
  </defs>
  <g id="alert" transform="translate(-6.323 -1)" clip-path="url(#clip-path)">
    <g id="style_doutone" data-name="style=doutone" transform="translate(8.293 1.179)">
      <g id="notification-bell-new">
        <path id="vector_Stroke_" data-name="vector (Stroke)" d="M8.737,18.83a.713.713,0,0,1,.75.669.907.907,0,0,0,.139.471,1.515,1.515,0,0,0,.447.455,2.548,2.548,0,0,0,.743.339,3.443,3.443,0,0,0,1.84,0,2.547,2.547,0,0,0,.744-.339,1.516,1.516,0,0,0,.447-.455.907.907,0,0,0,.139-.471.755.755,0,0,1,1.5,0,2.131,2.131,0,0,1-.318,1.1,2.9,2.9,0,0,1-.853.881,4.115,4.115,0,0,1-1.2.554,5.118,5.118,0,0,1-2.752,0,4.116,4.116,0,0,1-1.2-.554A2.905,2.905,0,0,1,8.3,20.6a2.131,2.131,0,0,1-.318-1.1A.713.713,0,0,1,8.737,18.83Z" transform="translate(-4.406 -4.904)" fill="#b7b7b7" fill-rule="evenodd"/>
        <path id="vector_Stroke__2" data-name="vector (Stroke)_2" d="M7.216,2.335a6.985,6.985,0,0,1,5.006-.419.6.6,0,0,1,.414.75.619.619,0,0,1-.767.4,5.725,5.725,0,0,0-4.1.343A4.094,4.094,0,0,0,5.435,7.086V8.147a6.752,6.752,0,0,1-.849,3.273l-.186.336a2.249,2.249,0,0,0,1.614,3.3,23.353,23.353,0,0,0,8.294,0l.132-.024a2.339,2.339,0,0,0,1.743-3.3l-.218-.458a6.9,6.9,0,0,1-.617-2.121.605.605,0,0,1,.539-.669.614.614,0,0,1,.685.526,5.718,5.718,0,0,0,.511,1.757l.218.458a3.54,3.54,0,0,1-2.638,4.986l-.112-.592.112.592-.132.024a24.613,24.613,0,0,1-8.742,0,3.449,3.449,0,0,1-2.474-5.053l.186-.336a5.57,5.57,0,0,0,.7-2.7V7.086A5.3,5.3,0,0,1,7.216,2.335Z" transform="translate(-2.886 -1.636)" fill="#b7b7b7" fill-rule="evenodd"/>
        <path id="vector_Stroke__3" data-name="vector (Stroke)_3" d="M17.05,3.913a1.314,1.314,0,1,0,1.314,1.314A1.314,1.314,0,0,0,17.05,3.913ZM14.61,5.227a2.44,2.44,0,1,1,2.44,2.44A2.44,2.44,0,0,1,14.61,5.227Z" transform="translate(-5.081 -1.636)" fill="#ed974c" fill-rule="evenodd"/>
      </g>
    </g>
  </g>
</svg>
