<svg xmlns="http://www.w3.org/2000/svg" width="55" height="55" viewBox="0 0 55 55">
  <g id="cam" transform="translate(-147 -26)">
    <circle id="Ellipse_124" data-name="Ellipse 124" cx="27.5" cy="27.5" r="27.5" transform="translate(147 26)" fill="#fff"/>
    <g id="Page-1" transform="translate(162 42)">
      <g id="Icon-Set-Filled">
        <path id="camera" d="M280.069,470.153H277.7l-.788-1.576c-.464-.917-.706-1.576-1.576-1.576h-9.458c-.87,0-1.159.752-1.576,1.576l-.788,1.576h-2.365A3.153,3.153,0,0,0,258,473.305v12.611a3.153,3.153,0,0,0,3.153,3.153h18.916a3.153,3.153,0,0,0,3.153-3.153V473.305A3.153,3.153,0,0,0,280.069,470.153Zm-9.458,15.764a6.305,6.305,0,1,1,6.305-6.305A6.306,6.306,0,0,1,270.611,485.916Zm0-11.034a4.729,4.729,0,1,0,4.729,4.729,4.73,4.73,0,0,0-4.729-4.729Z" transform="translate(-258 -467)" fill="#ed974c" fill-rule="evenodd"/>
      </g>
    </g>
  </g>
</svg>
