<svg xmlns="http://www.w3.org/2000/svg" width="16.654" height="21.442" viewBox="0 0 16.654 21.442">
  <g id="change-pass" transform="translate(-130.934 -105.056)">
    <path id="Path_11354" data-name="Path 11354" d="M136.458,105.056a4.754,4.754,0,0,0-4.754,4.721v2.541a.9.9,0,1,0,1.79,0v-2.541a2.964,2.964,0,0,1,5.928,0v2.541a.894.894,0,1,0,1.788,0v-2.541l0-.063a4.752,4.752,0,0,0-4.75-4.658Z" transform="translate(1.832)" fill="#ed974c"/>
    <path id="Path_11355" data-name="Path 11355" d="M133.718,106.931a2.8,2.8,0,0,0-2.784,2.784v7.752a2.8,2.8,0,0,0,2.784,2.786H138.1c.508,0,.741-.375.617-.868a5.135,5.135,0,0,1,6.063-6.265.65.65,0,0,0,.877-.647v-2.756a2.8,2.8,0,0,0-2.778-2.786Z" transform="translate(0 4.462)" fill="#ed974c"/>
    <path id="Path_11356" data-name="Path 11356" d="M137.453,109.094a3.9,3.9,0,1,0,3.9,3.9,3.9,3.9,0,0,0-3.9-3.9Zm-.014,1.166a.5.5,0,0,1,.288.076l.825.526a.495.495,0,0,1,0,.833l-.825.526a.495.495,0,0,1-.754-.347,1.2,1.2,0,0,0-.382.257,1.219,1.219,0,1,0,2.034.526.494.494,0,0,1,.95-.27,2.216,2.216,0,0,1-.558,2.165h0a2.206,2.206,0,1,1-2.046-3.71v-.088a.5.5,0,0,1,.472-.493Z" transform="translate(6.238 9.609)" fill="#ed974c"/>
  </g>
</svg>
