<?xml version="1.0" encoding="UTF-8"?>
<!DOCTYPE svg PUBLIC "-//W3C//DTD SVG 1.1//EN" "http://www.w3.org/Graphics/SVG/1.1/DTD/svg11.dtd">
<svg xmlns="http://www.w3.org/2000/svg" version="1.1" width="512px" height="512px" style="shape-rendering:geometricPrecision; text-rendering:geometricPrecision; image-rendering:optimizeQuality; fill-rule:evenodd; clip-rule:evenodd" xmlns:xlink="http://www.w3.org/1999/xlink">
<g><path style="opacity:1" fill="#d9dce1" d="M 235.5,63.5 C 318.158,58.9061 380.992,91.5728 424,161.5C 449.701,210.43 454.701,261.43 439,314.5C 417.006,377.16 374.506,418.994 311.5,440C 246.794,457.387 187.794,446.053 134.5,406C 82.2454,361.293 58.7454,304.46 64,235.5C 75.4412,154.4 119.608,99.8999 196.5,72C 209.404,68.0784 222.404,65.245 235.5,63.5 Z"/></g>
<g><path style="opacity:1" fill="#fefefe" d="M 243.5,95.5 C 307.972,93.9815 357.805,119.981 393,173.5C 419.047,219.913 422.381,267.913 403,317.5C 373.384,379.758 324.051,412.424 255,415.5C 184.014,411.825 134.347,377.492 106,312.5C 83.3613,242.666 98.8613,182.832 152.5,133C 179.029,111.063 209.362,98.5628 243.5,95.5 Z"/></g>
<g><path style="opacity:1" fill="#d9dce1" d="M 203.5,176.5 C 204.239,176.369 204.906,176.536 205.5,177C 222.014,193.681 238.681,210.181 255.5,226.5C 272.5,209.833 289.5,193.167 306.5,176.5C 315.819,185.319 324.986,194.319 334,203.5C 334.667,204.167 334.667,204.833 334,205.5C 317.319,222.014 300.819,238.681 284.5,255.5C 301.167,272.5 317.833,289.5 334.5,306.5C 325.681,315.819 316.681,324.986 307.5,334C 306.833,334.667 306.167,334.667 305.5,334C 288.986,317.319 272.319,300.819 255.5,284.5C 238.5,301.167 221.5,317.833 204.5,334.5C 195.181,325.681 186.014,316.681 177,307.5C 176.333,306.833 176.333,306.167 177,305.5C 193.681,288.986 210.181,272.319 226.5,255.5C 209.833,238.5 193.167,221.5 176.5,204.5C 185.521,195.146 194.521,185.813 203.5,176.5 Z"/></g>
</svg>
