<?xml version="1.0" encoding="UTF-8"?>
<!DOCTYPE svg PUBLIC "-//W3C//DTD SVG 1.1//EN" "http://www.w3.org/Graphics/SVG/1.1/DTD/svg11.dtd">
<svg xmlns="http://www.w3.org/2000/svg" version="1.1" width="512px" height="512px" style="shape-rendering:geometricPrecision; text-rendering:geometricPrecision; image-rendering:optimizeQuality; fill-rule:evenodd; clip-rule:evenodd" xmlns:xlink="http://www.w3.org/1999/xlink">
<g><path style="opacity:0.985" fill="#e63845" d="M 191.5,25.5 C 234.168,25.3333 276.835,25.5 319.5,26C 330.582,27.4534 339.416,32.6201 346,41.5C 353.67,56.667 358.17,72.667 359.5,89.5C 383.502,89.3334 407.502,89.5 431.5,90C 452.063,94.0628 462.73,106.563 463.5,127.5C 462.73,148.437 452.063,160.937 431.5,165C 314.167,165.667 196.833,165.667 79.5,165C 58.907,160.911 48.2403,148.411 47.5,127.5C 48.2403,106.589 58.907,94.0891 79.5,90C 103.498,89.5 127.498,89.3334 151.5,89.5C 152.83,72.667 157.33,56.667 165,41.5C 171.791,32.6916 180.625,27.3583 191.5,25.5 Z M 194.5,58.5 C 235.168,58.3333 275.835,58.5 316.5,59C 317.333,59.8333 318.167,60.6667 319,61.5C 322.386,69.9742 324.719,78.6408 326,87.5C 325.5,88 325,88.5 324.5,89C 278.5,89.6667 232.5,89.6667 186.5,89C 184.604,87.1917 184.104,85.025 185,82.5C 187.312,74.0465 190.478,66.0465 194.5,58.5 Z"/></g>
<g><path style="opacity:0.994" fill="#e63946" d="M 81.5,185.5 C 197.5,185.5 313.5,185.5 429.5,185.5C 424.19,267.841 418.69,350.175 413,432.5C 408.857,459.969 393.357,477.136 366.5,484C 329.532,485.148 292.532,485.648 255.5,485.5C 218.468,485.648 181.468,485.148 144.5,484C 117.632,477.096 102.132,459.93 98,432.5C 92.3101,350.175 86.8101,267.841 81.5,185.5 Z"/></g>
<g><path style="opacity:1" fill="#ede8e8" d="M 208.5,239.5 C 217.731,238.365 224.231,242.032 228,250.5C 228.667,282.167 228.667,313.833 228,345.5C 222.832,356.447 214.665,359.28 203.5,354C 200.193,351.222 198.026,347.722 197,343.5C 196.333,312.833 196.333,282.167 197,251.5C 199.045,245.624 202.878,241.624 208.5,239.5 Z"/></g>
<g><path style="opacity:1" fill="#ede8e8" d="M 293.5,239.5 C 303.343,238.501 310.176,242.501 314,251.5C 314.667,282.5 314.667,313.5 314,344.5C 308.202,356.766 299.369,359.599 287.5,353C 285.57,350.742 284.07,348.242 283,345.5C 282.333,313.5 282.333,281.5 283,249.5C 285.738,245.26 289.238,241.926 293.5,239.5 Z"/></g>
</svg>
