<svg xmlns="http://www.w3.org/2000/svg" xmlns:xlink="http://www.w3.org/1999/xlink" width="42" height="42" viewBox="0 0 42 42">
  <defs>
    <clipPath id="clip-path">
      <rect id="Rectangle_17468" data-name="Rectangle 17468" width="42" height="42" transform="translate(222 265)" fill="#fff"/>
    </clipPath>
    <clipPath id="clip-path-2">
      <rect id="Rectangle_17449" data-name="Rectangle 17449" width="36.362" height="36.283" fill="#ed974c"/>
    </clipPath>
  </defs>
  <g id="dining-room-icon" transform="translate(-222 -265)" clip-path="url(#clip-path)">
    <g id="Group_8298" data-name="Group 8298" transform="translate(224.614 268.217)">
      <g id="Group_8297" data-name="Group 8297" clip-path="url(#clip-path-2)">
        <path id="Path_11328" data-name="Path 11328" d="M11.7,139.995l-.651,7.178c-.045,1.239-1.437,1.327-1.568.08.192-2.353.36-4.717.458-7.074-.6.032-1.621-.1-1.9.556l-2.876,9.911a.5.5,0,1,1-.968-.227l1.563-10.464c-.039-.115-.12-.123-.224-.143a9.455,9.455,0,0,0-1.526-.146l-.159.308L1.7,149.5a.472.472,0,0,1-.927-.176l1.576-10.115C1.96,135.831.414,132.125.036,128.821c-.07-.611-.1-1.273.5-1.616a29.506,29.506,0,0,1,3.528-.647c.859.014,1.125.93,1.3,1.576.766,2.9,1.169,5.958,1.987,8.858l6.81-.708c1.168-.114,1.934,1.058,1.027,1.954.061,3.55.628,7.138.782,10.7.036.832-.371,1.379-.973.6l-1.6-9.336c-.274-.569-1.177-.081-1.69-.208" transform="translate(0 -114.834)" fill="#ed974c"/>
        <path id="Path_11329" data-name="Path 11329" d="M223.283,140.14l.457,7.359a.743.743,0,0,1-1.457-.014l-.673-7.526c-.64.081-1.677-.326-1.823.53l-1.552,9.01a.505.505,0,0,1-.977-.232c.185-3.512.721-7.048.84-10.56.024-.722-.305-.748-.37-1.215a1.149,1.149,0,0,1,1.244-1.248l7.281.615,2.1-9.392a1.344,1.344,0,0,1,1.094-.951,25.452,25.452,0,0,1,3.329.567c.986.327.718,1.347.578,2.143-.571,3.237-1.687,6.527-2.234,9.789.207,3.287,1.276,6.737,1.509,9.985.02.276.106.6-.143.761a.474.474,0,0,1-.726-.262l-2.263-9.875a10.288,10.288,0,0,0-1.613.16c-.122.038-.137.107-.157.221l1.565,10.563c-.13.657-.854.676-1.034.024l-2.837-9.948c-.027-.25-.612-.5-.794-.5Z" transform="translate(-197.132 -114.795)" fill="#ed974c"/>
        <path id="Path_11330" data-name="Path 11330" d="M80.9,145.4h6.485l-.539-.618c-.236-.26-.457-1.39-.208-1.565a38.1,38.1,0,0,1,4.318-.045,1.217,1.217,0,0,1,.492.11,2.4,2.4,0,0,1-.821,2.117h4.308c.418,0,.962.638.979,1.068.017.4-.482,1.156-.887,1.156H92.021l.282,3.566c.033.205-.094.138-.235.144-.507.022-1.184-.2-1.712-.19l-.279-3.519H85.258c-.176,5.252-.058,10.534-.1,15.8,0,.356.154.507-.05.867a.644.644,0,0,1-1.214-.068,5.029,5.029,0,0,1-.121-.711V147.623H78.959l-.381,3.6c-.463-.073-1.424.327-1.8.264a.2.2,0,0,1-.138-.2l.281-3.662H74c-.367,0-.82-.87-.793-1.249.025-.352.594-.974.886-.974h3.567a2.522,2.522,0,0,1-.834-2.131h4.678c.023,0,.074-.1.138-.094a2.28,2.28,0,0,1-.74,2.225" transform="translate(-66.426 -129.875)" fill="#ed974c"/>
        <path id="Path_11331" data-name="Path 11331" d="M152.123,9.255a56.856,56.856,0,0,0-14.842,0V6.928c0-5.868,7.529-9.04,12.135-5.343,1.093.877,2.707,3.3,2.707,4.714Z" transform="translate(-126.518 0.781)" fill="#ed974c"/>
      </g>
    </g>
  </g>
</svg>
