<svg xmlns="http://www.w3.org/2000/svg" width="27.183" height="27.183" viewBox="0 0 27.183 27.183">
  <g id="edit-product" transform="translate(-108 -201)">
    <rect id="Rectangle_17436" data-name="Rectangle 17436" width="27.183" height="27.183" rx="13.592" transform="translate(108 201)" fill="#ed974c" opacity="0.702"/>
    <g id="edit-svgrepo-com" transform="translate(115.169 208.17)">
      <path id="Path_11310" data-name="Path 11310" d="M13,21h5.606" transform="translate(-5.992 -8.386)" fill="none" stroke="#fff" stroke-linecap="round" stroke-linejoin="round" stroke-width="1.2"/>
      <path id="Path_11311" data-name="Path 11311" d="M14.959,6.079,5.873,15.2a1.4,1.4,0,0,1-.993.412H3.7a.706.706,0,0,1-.7-.706V13.721a1.4,1.4,0,0,1,.409-.989L12.5,3.607C14.608,1.842,16.718,4.314,14.959,6.079Z" transform="translate(-3 -3)" fill="none" stroke="#fff" stroke-linecap="round" stroke-linejoin="round" stroke-width="1.2"/>
      <path id="Path_11312" data-name="Path 11312" d="M15.31,5.31l2.4,2.4" transform="translate(-6.683 -3.691)" fill="none" stroke="#fff" stroke-linecap="round" stroke-linejoin="round" stroke-width="1.2"/>
      <path id="Path_11313" data-name="Path 11313" d="M13.9,7.847,5.873,15.908a1.4,1.4,0,0,1-.993.412H3.7a.706.706,0,0,1-.7-.706V14.427a1.4,1.4,0,0,1,.409-.989L11.455,5.36a.175.175,0,0,0,.048.089l2.4,2.4Z" transform="translate(-3 -3.706)" fill="#fff" opacity="0.1"/>
    </g>
  </g>
</svg>
