<svg xmlns="http://www.w3.org/2000/svg" width="11" height="8.081" viewBox="0 0 11 8.081">
  <path id="email" d="M9.473,67.925H1.527A1.527,1.527,0,0,0,0,69.452v5.027a1.527,1.527,0,0,0,1.527,1.527H9.473A1.527,1.527,0,0,0,11,74.479V69.452A1.527,1.527,0,0,0,9.473,67.925ZM3.828,73.378,1.689,75.2a.359.359,0,1,1-.466-.546l2.139-1.824a.359.359,0,0,1,.466.546ZM5.5,72.684a1.19,1.19,0,0,1-.78-.283h0L1.439,69.553a.359.359,0,0,1,.471-.543l3.282,2.849a.5.5,0,0,0,.619,0h0L9.091,69.01a.359.359,0,1,1,.471.543L6.279,72.4A1.194,1.194,0,0,1,5.5,72.684Zm4.317,2.478a.359.359,0,0,1-.506.04L7.172,73.378a.359.359,0,0,1,.466-.546l2.139,1.824A.359.359,0,0,1,9.817,75.162Z" transform="translate(0 -67.925)" fill="#b7b7b7"/>
</svg>
