<svg xmlns="http://www.w3.org/2000/svg" xmlns:xlink="http://www.w3.org/1999/xlink" width="42" height="42" viewBox="0 0 42 42">
  <defs>
    <clipPath id="clip-path">
      <rect id="Rectangle_17467" data-name="Rectangle 17467" width="42" height="42" transform="translate(40 267)" fill="#fff"/>
    </clipPath>
    <clipPath id="clip-path-2">
      <rect id="Rectangle_17448" data-name="Rectangle 17448" width="41.563" height="28.914" fill="#ed974c"/>
    </clipPath>
  </defs>
  <g id="living-room" transform="translate(-40 -267)" clip-path="url(#clip-path)">
    <g id="living-room-icon" transform="translate(39.614 271)">
      <g id="Group_8294" data-name="Group 8294" transform="translate(0.458 2)" clip-path="url(#clip-path-2)">
        <path id="Path_11325" data-name="Path 11325" d="M0,27.924c.617-.529,1.546-.19,2.294-.279-.017-.959-.126-1.943.608-2.662a3.819,3.819,0,0,1,.943-.562H6.813c.112,0,.239-.34.209-.483.044-7.113-.124-14.255.085-21.351A3.441,3.441,0,0,1,13.519,1.9c.161.29.162.793.378,1.009.2.2,1.031.406,1.393.655.95.653,2.64,3.615.958,3.891-1.8.295-4.294-.175-6.168-.02C9.138,6.944,9.7,5.59,10.1,4.85a4.035,4.035,0,0,1,2.447-1.938,2.187,2.187,0,0,0-3.626-.968A4.1,4.1,0,0,0,8.23,3.191V24.421H11.4a6.141,6.141,0,0,1,.674.421c.925.721.935,1.686.877,2.8h3.373a14.444,14.444,0,0,0-.022-1.659,3.922,3.922,0,0,1-1.059-.651,3.2,3.2,0,0,1-.526-1.275c.25-3.5-.382-7.617,0-11.043a3.561,3.561,0,0,1,2.668-3.184c.087-2.626-.643-5.613,2.775-5.876,4.744-.365,9.92.284,14.709.008,3.226.336,2.2,3.5,2.376,5.87a3.362,3.362,0,0,1,2.688,2.743c.426,3.641-.319,8.171-.011,11.907-.178,1.108-1.32,1.277-1.455,1.5a14.406,14.406,0,0,0-.022,1.659h2.766c.272,0,.737,1.129-.264,1.268l-40.218,0L0,28.624ZM15.515,6.064c-.663-2.466-3.787-2.3-4.587,0Zm5.936,6.656c.108.833-.079,1.874,0,2.733H33.323V12.58a3.71,3.71,0,0,1,2.707-2.818c-.253-1.336.729-4.225-1.149-4.4-4.751-.455-10.165.359-14.988,0-1.935.106-.865,3.062-1.149,4.405a3.752,3.752,0,0,1,2.707,2.958M38.719,23.3H16.054a1.245,1.245,0,0,0,1.423,1.415c1,.179,14.875.091,20.8-.12.56-.244.45-.757.44-1.295M11.6,27.644c-.021-1.11.306-1.845-1.005-1.969-1.994-.188-4.292.129-6.318.037-.878.276-.806,1.131-.771,1.932ZM18.89,25.96H17.671v1.686H18.89Zm1.347,1.684h14.3V25.962h-14.3Zm15.647,0H37.1V25.96H35.884Z" transform="translate(0 0)" fill="#ed974c"/>
        <path id="Path_11326" data-name="Path 11326" d="M161.869,48.911a2.01,2.01,0,1,1-2.009-2.087,2.049,2.049,0,0,1,2.009,2.087m-1.26,0a.741.741,0,1,0-.74.769.755.755,0,0,0,.74-.769" transform="translate(-136.486 -40.231)" fill="#ed974c"/>
        <path id="Path_11327" data-name="Path 11327" d="M220.865,48.98a2.009,2.009,0,1,1-2.007-2.085,2.047,2.047,0,0,1,2.007,2.085m-1.265-.011a.734.734,0,1,0-.733.762.748.748,0,0,0,.733-.762" transform="translate(-187.501 -40.292)" fill="#ed974c"/>
      </g>
    </g>
  </g>
</svg>
