<svg xmlns="http://www.w3.org/2000/svg" width="19.87" height="20.356" viewBox="0 0 19.87 20.356">
  <g id="logout" transform="translate(-10.95 -10)">
    <path id="Path_11357" data-name="Path 11357" d="M43.517,12.649,36.15,10.018a.345.345,0,0,0-.3.041.341.341,0,0,0-.137.27v2.3H28.6a.326.326,0,0,0-.328.328v5.1a.328.328,0,1,0,.656,0V13.288h6.781V27.061H28.926V22.293a.328.328,0,0,0-.656,0v5.1a.326.326,0,0,0,.328.328h7.109v2.308a.323.323,0,0,0,.137.262.338.338,0,0,0,.193.069.347.347,0,0,0,.112-.02L43.517,27.7a.332.332,0,0,0,.216-.31V12.957A.323.323,0,0,0,43.517,12.649Z" transform="translate(-12.913)" fill="#ed974c"/>
    <path id="Path_11358" data-name="Path 11358" d="M12.075,43.167h6.733a.328.328,0,1,0,0-.656H12.075l1.555-1.555a.329.329,0,1,0-.466-.466l-2.117,2.117a.342.342,0,0,0-.071.107.307.307,0,0,0-.025.127.354.354,0,0,0,.025.127.342.342,0,0,0,.071.107l2.117,2.115a.326.326,0,0,0,.463,0,.332.332,0,0,0,0-.466Z" transform="translate(0 -22.661)" fill="#ed974c"/>
  </g>
</svg>
