<svg xmlns="http://www.w3.org/2000/svg" width="16.966" height="19.442" viewBox="0 0 16.966 19.442">
  <g id="privacy" transform="translate(-3.25 -1.25)">
    <path id="Path_11353" data-name="Path 11353" d="M8.461,19.706l2.006.927a.632.632,0,0,0,.53,0L13,19.706a10.906,10.906,0,0,0,6.211-9.933V5.545a.669.669,0,0,0-.573-.673,13.657,13.657,0,0,1-3.325-.865,14.011,14.011,0,0,1-4.159-2.593.631.631,0,0,0-.852,0A14,14,0,0,1,6.148,4.008a13.657,13.657,0,0,1-3.325.865.669.669,0,0,0-.573.673V9.772a10.906,10.906,0,0,0,6.211,9.933Zm-1.018-9.3a.848.848,0,0,1,1.223-.141l1.6,1.333,3.367-3.11a.847.847,0,0,1,1.228.075.929.929,0,0,1-.072,1.276l-3.915,3.617a.844.844,0,0,1-1.121.031L7.579,11.677A.93.93,0,0,1,7.443,10.405Z" transform="translate(1)" fill="#ed974c"/>
  </g>
</svg>
