<svg xmlns="http://www.w3.org/2000/svg" xmlns:xlink="http://www.w3.org/1999/xlink" width="18" height="18" viewBox="0 0 18 18">
  <defs>
    <clipPath id="clip-path">
      <rect id="Rectangle_17388" data-name="Rectangle 17388" width="18" height="18" transform="translate(9.674 -2.16)" fill="#e6e6e6"/>
    </clipPath>
  </defs>
  <g id="profile" transform="translate(-9.674 2.16)" clip-path="url(#clip-path)">
    <g id="man-user" transform="translate(10.858 -0.816)">
      <g id="Page-1">
        <g id="Dribbble-Light-Preview">
          <g id="icons">
            <path id="profile-_1335_" data-name="profile-[#1335]" d="M371.736,2006.735a3.094,3.094,0,1,1,3.094-3.094,3.1,3.1,0,0,1-3.094,3.094m2.907.521a4.641,4.641,0,1,0-5.814,0,7.442,7.442,0,0,0-4.829,7.215h1.547a6.188,6.188,0,1,1,12.377,0h1.547a7.442,7.442,0,0,0-4.828-7.215" transform="translate(-364 -1999)" fill="#b7b7b7" fill-rule="evenodd"/>
          </g>
        </g>
      </g>
    </g>
  </g>
</svg>
