<svg xmlns="http://www.w3.org/2000/svg" width="17.851" height="17.85" viewBox="0 0 17.851 17.85">
  <path id="support" d="M24.443,15.748V15c0-.026,0-.051,0-.076a7.213,7.213,0,0,0-14.371,0,.762.762,0,0,0,0,.076v.749a2.973,2.973,0,0,0-1.737,2.7v2.091A2.974,2.974,0,0,0,11.3,23.509h.676A1.711,1.711,0,0,0,13.684,21.8V17.184a1.711,1.711,0,0,0-1.709-1.709H11.85v-.438a5.427,5.427,0,0,1,10.806,0v.438h-.125a1.711,1.711,0,0,0-1.709,1.709V21.8a1.709,1.709,0,0,0,1.7,1.707,1.789,1.789,0,0,1-1.544.894H19.849a1.337,1.337,0,0,0-1.257-.893H17.7a1.339,1.339,0,0,0,0,2.678h.893a1.337,1.337,0,0,0,1.257-.893h1.126a2.681,2.681,0,0,0,2.523-1.8,2.975,2.975,0,0,0,2.681-2.956V18.446a2.973,2.973,0,0,0-1.737-2.7Z" transform="translate(-8.328 -8.336)" fill="#ed974c"/>
</svg>
