<svg xmlns="http://www.w3.org/2000/svg" width="16.424" height="20.535" viewBox="0 0 16.424 20.535">
  <g id="Term_Conditions" data-name="Term &amp; Conditions" transform="translate(-12.1 -2.5)">
    <path id="Path_11350" data-name="Path 11350" d="M62.619,6.276,59.33,2.987A.453.453,0,0,0,59.2,2.9V6.406h3.506C62.684,6.362,62.641,6.319,62.619,6.276Z" transform="translate(-36.908 -0.313)" fill="#ed974c"/>
    <path id="Path_11351" data-name="Path 11351" d="M25.884,14.856V7.326h-4.22a.6.6,0,0,1-.606-.606V2.5H12.706a.6.6,0,0,0-.606.606V19.595a.6.6,0,0,0,.606.606h7.552a4.253,4.253,0,1,0,5.626-5.345ZM15.5,6.092h3.008a.606.606,0,0,1,0,1.212H15.5a.6.6,0,0,1-.606-.606A.619.619,0,0,1,15.5,6.092Zm0,3.289h6.968a.606.606,0,1,1,0,1.212H15.5a.6.6,0,0,1-.606-.606A.619.619,0,0,1,15.5,9.381Zm0,3.289h6.968a.6.6,0,0,1,.606.606.619.619,0,0,1-.606.606H15.5a.6.6,0,0,1-.606-.606A.619.619,0,0,1,15.5,12.67Zm3.765,4.5H15.5a.6.6,0,0,1-.606-.606.619.619,0,0,1,.606-.606h3.765a.606.606,0,0,1,0,1.212Zm5,4.652a3.029,3.029,0,1,1,3.029-3.029A3.038,3.038,0,0,1,24.261,21.824Z" transform="translate(0)" fill="#ed974c"/>
    <path id="Path_11352" data-name="Path 11352" d="M61.972,71.654l-1.32,1.32-.433-.433a.612.612,0,1,0-.866.866l.887.887a.586.586,0,0,0,.433.173.643.643,0,0,0,.433-.173l1.774-1.774a.614.614,0,0,0,0-.866A.667.667,0,0,0,61.972,71.654Z" transform="translate(-36.888 -54.049)" fill="#ed974c"/>
  </g>
</svg>
