<svg xmlns="http://www.w3.org/2000/svg" xmlns:xlink="http://www.w3.org/1999/xlink" width="392.206" height="342.819" viewBox="0 0 392.206 342.819">
  <defs>
    <linearGradient id="linear-gradient" x1="0.5" x2="0.5" y2="1" gradientUnits="objectBoundingBox">
      <stop offset="0" stop-color="#008083"/>
      <stop offset="1" stop-color="#6ec7d2"/>
    </linearGradient>
    <clipPath id="clip-path">
      <path id="Subtraction_3" data-name="Subtraction 3" d="M373,315H301.96A17,17,0,0,1,286,303.894c0-.228,0-.456,0-.684a77.412,77.412,0,0,0-7.151-32.514,81.646,81.646,0,0,0-8.39-14.189,86.16,86.16,0,0,0-11.112-12.362,90.44,90.44,0,0,0-13.468-10.2,93.838,93.838,0,0,0-15.458-7.7,96.558,96.558,0,0,0-17.082-4.867,99.944,99.944,0,0,0-36.679,0,96.557,96.557,0,0,0-17.082,4.867,93.837,93.837,0,0,0-15.458,7.7,90.441,90.441,0,0,0-13.468,10.2,86.159,86.159,0,0,0-11.112,12.362,81.644,81.644,0,0,0-8.39,14.189A77.412,77.412,0,0,0,104,303.21c0,.228,0,.457,0,.684A17,17,0,0,1,88.041,315H17c-4.416,0-8.036-.912-10.762-2.711-3.123-2.061-5.1-5.31-5.864-9.658H0V0H390V302.631h-.627a16.819,16.819,0,0,1-2.307,4.943A17.013,17.013,0,0,1,373,315Z" transform="translate(0 0.21)" fill="#427177" opacity="0.35"/>
    </clipPath>
  </defs>
  <g id="Group_8341" data-name="Group 8341" transform="translate(2.206 0.791)">
    <path id="Path_11359" data-name="Path 11359" d="M-7330.969-188.2l53.665,9.2s19.476,0,19.986-19.029,30.975-72.9,81.225-72.847,87.893,16.353,100.983,70.084c11.584,26.871,24.772,18.96,24.772,18.96l49.484-4.079-20.2-47.407-56.789-94.08-170-25.452-14.575,47.622-72.968,119.317Z" transform="translate(7361 493.21)" opacity="0.451"/>
    <g id="welcome-head-graphics" transform="translate(0 -1)">
      <path id="Shaped_subtraction" data-name="Shaped subtraction" d="M373,315H301.96a16.841,16.841,0,0,1-10.343-3.508,17.019,17.019,0,0,1-6.018-8.862h-.351a85.172,85.172,0,0,0-10.027-30.211,88.148,88.148,0,0,0-8.861-13.033A90.1,90.1,0,0,0,255.314,248.1a91.29,91.29,0,0,0-27.5-16.21,94.272,94.272,0,0,0-65.624,0,91.291,91.291,0,0,0-27.5,16.21,90.1,90.1,0,0,0-11.046,11.283,88.147,88.147,0,0,0-8.861,13.033,85.174,85.174,0,0,0-10.027,30.211H104.4A17.006,17.006,0,0,1,88.041,315H17a16.841,16.841,0,0,1-10.343-3.508A17.02,17.02,0,0,1,.639,302.63H0V0H390V302.63h-.638A17.007,17.007,0,0,1,373,315Z" transform="translate(0 0.21)" fill="url(#linear-gradient)"/>
      <g id="Background_objects" data-name="Background objects" transform="translate(0 0)" clip-path="url(#clip-path)">
        <g id="background_objects-2" data-name="background objects" transform="translate(-52.519 -180.548)" opacity="0.443">
          <ellipse id="Ellipse_3" data-name="Ellipse 3" cx="92.56" cy="88.777" rx="92.56" ry="88.777" transform="translate(27.08 103.74)" fill="#004c4c" opacity="0.367"/>
          <ellipse id="Ellipse_5" data-name="Ellipse 5" cx="150.28" cy="144.139" rx="150.28" ry="144.139" transform="translate(263.16 0)" fill="#427177" opacity="0.244"/>
          <ellipse id="Ellipse_6" data-name="Ellipse 6" cx="9.36" cy="8.977" rx="9.36" ry="8.977" transform="translate(248.56 231.42)" fill="#427177" opacity="0.21"/>
          <ellipse id="Ellipse_8" data-name="Ellipse 8" cx="6.76" cy="6.484" rx="6.76" ry="6.484" transform="translate(250.64 332.167)" fill="#427177" opacity="0.21"/>
          <ellipse id="Ellipse_9" data-name="Ellipse 9" cx="10.92" cy="10.474" rx="10.92" ry="10.474" transform="translate(466.959 440.894)" fill="#427177" opacity="0.21"/>
          <ellipse id="Ellipse_7" data-name="Ellipse 7" cx="15.08" cy="14.464" rx="15.08" ry="14.464" transform="translate(324.48 243.39)" fill="#427177" opacity="0.21"/>
          <ellipse id="Ellipse_2" data-name="Ellipse 2" cx="120.64" cy="115.71" rx="120.64" ry="115.71" transform="translate(0 332.167)" fill="#b2d8d8" opacity="0.239"/>
          <g id="Group_8191" data-name="Group 8191" transform="translate(365.093 303.077)" opacity="0.545">
            <path id="Path_10831" data-name="Path 10831" d="M60.7,495.142c-2.154,2.257-4.111,4.723-6.1,7.153-.393.478.249,1.19.641.708,2-2.464,4.031-4.894,5.859-7.519a.266.266,0,0,0-.4-.342" transform="translate(-33.119 -458.898)" fill="#66b2b2"/>
            <path id="Path_10832" data-name="Path 10832" d="M124.884,511.791c-5.954,5.475-11.07,12.24-16.371,18.463-.3.349.167.866.476.527,5.5-6.011,11.5-11.827,16.307-18.536.23-.322-.12-.722-.412-.454" transform="translate(-4.204 -447.344)" fill="#66b2b2"/>
            <path id="Path_10833" data-name="Path 10833" d="M180.69,520.69c0-14.14,4.166-37.661-10.471-44.835-4.1-2.011-8.459-1.669-12.823-1.669H79.21c-10.614,0-26.632-3.16-34.267,7.056-4.68,6.263-3.992,13.855-3.992,21.378v33.8c0,16.733-4.495,45.1,17.488,46.5h90.09c12.012,0,27.992,2.12,31.68-14.8,1.19-5.465.481-11.867.481-17.411Zm-3.974,42c-.574,18.243-16.613,15.855-28.187,15.855H58.439c-10.9-.7-13.514-10.441-13.514-20.385V533.586c0-13.3-.639-26.816,0-40.1.906-18.848,21.508-14.914,33.217-14.914h50.822c11.193,0,22.508-.529,33.7,0,17.746.839,14.057,23.808,14.057,37.28,0,15.58.49,31.266,0,46.838" transform="translate(-40.573 -473.725)" fill="#66b2b2"/>
            <path id="Path_10834" data-name="Path 10834" d="M165.647,494.359c0-3.135.541-7.155-1.157-9.895-3.364-5.43-15.533-2.979-20.341-2.979l-43.159.005-38.564.005c-6.017,0-13.692-1.351-14.209,7.758-.845,14.858,0,30.069,0,44.955,0,7.16-.063,14.321.089,21.479.1,4.7,1.078,8.61,5.84,9.256a.76.76,0,0,0,.392.142c26.8,1.618,53.827.6,80.667.585,7.794-.005,16.353,1.1,24.093-.012,4.766-.683,6.22-4.091,6.372-8.848.433-13.672-.012-27.448-.018-41.129q0-10.661-.008-21.323m-2.536,13.164q-.009,20.729-.017,41.459c0,5.6,1.524,11.364-4.687,13.818-2.6,1.027-7.361,0-10.12-.005q-7,0-13.989-.007c-26.539-.014-53.26-1.015-79.757.585-.029,0-.048.017-.075.02-5.332-1.664-3.793-8.8-3.762-12.92.048-6.352,0-12.7,0-19.056l0-38.259c0-4.04-.238-7.272,4.375-8.91,2-.71,5.264,0,7.342,0q16.675,0,33.348,0l38.872.005,15.236,0c2.542,0,6.031-.7,8.51,0,7.594,2.154,4.722,16.856,4.719,23.264" transform="translate(-36.675 -468.717)" fill="#66b2b2"/>
          </g>
        </g>
      </g>
    </g>
  </g>
</svg>
